<svg width="36" height="36" viewBox="0 0 36 36" fill="none" xmlns="http://www.w3.org/2000/svg">
<path d="M35.9796 28.4106C35.8937 27.8797 35.561 27.426 35.0626 27.1564L27.6903 22.8115L27.6297 22.7776C27.3205 22.6228 26.9792 22.5435 26.6335 22.5461C26.0158 22.5461 25.4259 22.7801 25.0166 23.1907L22.8406 25.3683C22.7475 25.4567 22.4441 25.5848 22.352 25.5895C22.3268 25.5874 19.8202 25.4068 15.2055 20.7903C10.599 16.1836 10.4036 13.6685 10.4021 13.6685C10.4046 13.5399 10.5311 13.2374 10.6211 13.1438L12.4767 11.2882C13.1304 10.6328 13.3263 9.54634 12.9385 8.70473L8.84068 0.991828C8.54291 0.378623 7.96434 0 7.32251 0C6.86839 0 6.43022 0.188283 6.0877 0.530381L1.02969 5.57852C0.544716 6.06106 0.127115 6.90473 0.0360857 7.58378C-0.00814303 7.90839 -0.905574 15.6568 9.71446 26.2814C18.7304 35.2989 25.7607 35.9995 27.7022 35.9995C27.9386 36.0026 28.175 35.9904 28.4098 35.963C29.0866 35.8725 29.929 35.4558 30.4109 34.9727L35.4648 29.9179C35.8773 29.5033 36.0655 28.9554 35.9796 28.4106Z" fill="#5D5D5D"/>
</svg>
