<svg width="16" height="16" viewBox="0 0 16 16" fill="none" xmlns="http://www.w3.org/2000/svg">
<path d="M0.146584 12.8544L5.00058 8.00039L0.146584 3.14639C0.053576 3.05224 0.00142002 2.92523 0.00142002 2.79289C0.00142002 2.66055 0.053576 2.53354 0.146584 2.43939L2.43958 0.146393C2.53335 0.0526577 2.6605 0 2.79308 0C2.92567 0 3.05282 0.0526577 3.14658 0.146393L8.00058 5.00039L12.8546 0.146393C12.9483 0.0526577 13.0755 0 13.2081 0C13.3407 0 13.4678 0.0526577 13.5616 0.146393L15.8546 2.43939C15.9483 2.53316 16.001 2.66031 16.001 2.79289C16.001 2.92548 15.9483 3.05263 15.8546 3.14639L11.0006 8.00039L15.8546 12.8544C15.9483 12.9482 16.001 13.0753 16.001 13.2079C16.001 13.3405 15.9483 13.4676 15.8546 13.5614L13.5616 15.8544C13.4678 15.9481 13.3407 16.0008 13.2081 16.0008C13.0755 16.0008 12.9483 15.9481 12.8546 15.8544L8.00058 11.0004L3.14658 15.8544C3.05282 15.9481 2.92567 16.0008 2.79308 16.0008C2.6605 16.0008 2.53335 15.9481 2.43958 15.8544L0.146584 13.5614C0.052848 13.4676 0.000190735 13.3405 0.000190735 13.2079C0.000190735 13.0753 0.052848 12.9482 0.146584 12.8544Z" fill="#FAFAFA"/>
</svg>
