<svg width="40" height="40" viewBox="0 0 40 40" fill="none" xmlns="http://www.w3.org/2000/svg">
<path d="M16.8747 36.6666C16.8747 37.4954 17.2039 38.2902 17.79 38.8763C18.376 39.4623 19.1709 39.7916 19.9997 39.7916C20.8285 39.7916 21.6233 39.4623 22.2094 38.8763C22.7954 38.2902 23.1247 37.4954 23.1247 36.6666V23.1249H36.6663C37.4951 23.1249 38.29 22.7957 38.876 22.2096C39.4621 21.6236 39.7913 20.8287 39.7913 19.9999C39.7913 19.1711 39.4621 18.3763 38.876 17.7902C38.29 17.2042 37.4951 16.8749 36.6663 16.8749H23.1247V3.33325C23.1247 2.50445 22.7954 1.70959 22.2094 1.12354C21.6233 0.537492 20.8285 0.208252 19.9997 0.208252C19.1709 0.208252 18.376 0.537492 17.79 1.12354C17.2039 1.70959 16.8747 2.50445 16.8747 3.33325V16.8749H3.33301C2.50421 16.8749 1.70935 17.2042 1.1233 17.7902C0.537248 18.3763 0.208008 19.1711 0.208008 19.9999C0.208008 20.8287 0.537248 21.6236 1.1233 22.2096C1.70935 22.7957 2.50421 23.1249 3.33301 23.1249H16.8747V36.6666Z" fill="#F75959"/>
</svg>
