<svg width="32" height="30" viewBox="0 0 32 30" fill="none" xmlns="http://www.w3.org/2000/svg">
<path d="M14.4918 0.624588C14.8918 0.224665 15.4343 0 16 0C16.5657 0 17.1082 0.224665 17.5082 0.624588L22.3998 5.51614V2.75784C22.3998 2.47495 22.5121 2.20365 22.7122 2.00362C22.9122 1.80359 23.1835 1.69121 23.4664 1.69121H25.5996C25.8825 1.69121 26.1538 1.80359 26.3539 2.00362C26.5539 2.20365 26.6663 2.47495 26.6663 2.75784V9.78265L31.6879 14.8022C31.888 15.0025 32.0002 15.274 32 15.5571C31.9998 15.8401 31.8872 16.1115 31.6869 16.3115C31.4866 16.5115 31.2151 16.6237 30.932 16.6235C30.649 16.6233 30.3776 16.5107 30.1776 16.3104L16 2.1328L1.82239 16.3104C1.62239 16.5107 1.35102 16.6233 1.06797 16.6235C0.78493 16.6237 0.513399 16.5115 0.313115 16.3115C0.112831 16.1115 0.000200298 15.8401 2.66893e-07 15.5571C-0.000199764 15.274 0.112047 15.0025 0.312049 14.8022L14.4918 0.624588Z" fill="#F75959"/>
<path d="M28.7992 17.2492L15.9997 4.44971L3.2002 17.2492V26.2238C3.2002 27.0725 3.53732 27.8864 4.13742 28.4865C4.73751 29.0866 5.55142 29.4237 6.40008 29.4237H25.5994C26.448 29.4237 27.2619 29.0866 27.862 28.4865C28.4621 27.8864 28.7992 27.0725 28.7992 26.2238V17.2492ZM15.9997 15.5192C19.5495 11.9502 28.4259 18.1943 15.9997 26.2238C3.57352 18.1943 12.45 11.9502 15.9997 15.5192Z" fill="#F75959"/>
</svg>
