<svg width="39" height="47" viewBox="0 0 39 47" fill="none" xmlns="http://www.w3.org/2000/svg">
<path fill-rule="evenodd" clip-rule="evenodd" d="M10.9107 3.35714C10.9107 2.46677 11.2644 1.61287 11.894 0.983284C12.5236 0.353698 13.3775 0 14.2679 0L24.3393 0C25.2297 0 26.0836 0.353698 26.7131 0.983284C27.3427 1.61287 27.6964 2.46677 27.6964 3.35714V5.03571C27.6964 5.92608 27.3427 6.77999 26.7131 7.40957C26.0836 8.03916 25.2297 8.39286 24.3393 8.39286H14.2679C13.3775 8.39286 12.5236 8.03916 11.894 7.40957C11.2644 6.77999 10.9107 5.92608 10.9107 5.03571V3.35714ZM31.8929 3.35714H33.5714C34.907 3.35714 36.1878 3.88769 37.1322 4.83207C38.0766 5.77645 38.6071 7.0573 38.6071 8.39286V41.9643C38.6071 43.2998 38.0766 44.5807 37.1322 45.5251C36.1878 46.4695 34.907 47 33.5714 47H5.03571C3.70016 47 2.41931 46.4695 1.47493 45.5251C0.530547 44.5807 0 43.2998 0 41.9643V8.39286C0 7.0573 0.530547 5.77645 1.47493 4.83207C2.41931 3.88769 3.70016 3.35714 5.03571 3.35714H6.71429V5.03571C6.71429 7.03905 7.51011 8.96033 8.92668 10.3769C10.3432 11.7935 12.2645 12.5893 14.2679 12.5893H24.3393C26.3426 12.5893 28.2639 11.7935 29.6805 10.3769C31.097 8.96033 31.8929 7.03905 31.8929 5.03571V3.35714ZM15.8457 19.9683C15.8457 19.2398 16.4366 18.6523 17.1651 18.6523H21.4454C22.1706 18.6523 22.7614 19.2398 22.7614 19.9683V25.2054H27.9986C28.7271 25.2054 29.3146 25.7963 29.3146 26.5248V30.8051C29.3155 30.9782 29.282 31.1497 29.2162 31.3098C29.1504 31.4699 29.0535 31.6153 28.9311 31.7377C28.8087 31.8601 28.6633 31.957 28.5032 32.0228C28.3432 32.0886 28.1716 32.122 27.9986 32.1211H22.7614V37.3583C22.7628 37.5316 22.7297 37.7035 22.664 37.864C22.5984 38.0244 22.5016 38.1703 22.3792 38.293C22.2567 38.4157 22.1112 38.5129 21.9509 38.579C21.7906 38.645 21.6188 38.6785 21.4454 38.6776H17.1617C16.9884 38.6785 16.8166 38.645 16.6563 38.579C16.496 38.5129 16.3504 38.4157 16.228 38.293C16.1056 38.1703 16.0087 38.0244 15.9431 37.864C15.8775 37.7035 15.8444 37.5316 15.8457 37.3583V32.1211H10.6086C10.4355 32.122 10.264 32.0886 10.1039 32.0228C9.94384 31.957 9.79841 31.8601 9.67603 31.7377C9.55366 31.6153 9.45675 31.4699 9.39093 31.3098C9.32511 31.1497 9.29168 30.9782 9.29257 30.8051V26.5214C9.29257 25.7929 9.88007 25.2021 10.6086 25.2021H15.8457V19.9683Z" fill="#5D5D5D"/>
</svg>
