<svg width="55" height="47" viewBox="0 0 55 47" fill="none" xmlns="http://www.w3.org/2000/svg">
<path d="M55 15.9774C55 29.2541 43.945 36.3279 35.8545 42.6618C33 44.8951 30.25 47 27.5 47C24.75 47 22 44.8978 19.1455 42.6591C11.0522 36.3306 0 29.2541 0 15.9801C0 2.70619 15.125 -6.71553 27.5 6.05061C39.875 -6.71553 55 2.70073 55 15.9774Z" fill="#5D5D5D"/>
<path d="M16.0552 19.9233C16.3262 19.2793 16.7764 18.8149 17.3574 18.5811L17.3652 18.5781C17.6297 18.4746 17.9113 18.4216 18.1953 18.4219H18.2266C19.5566 18.4419 20.9145 19.5723 21.605 21.2349C22.1113 22.4507 22.1694 23.7583 21.7603 24.7329C21.4897 25.3774 21.0386 25.8418 20.4551 26.0757L20.4487 26.0781C20.1842 26.1817 19.9027 26.2347 19.6187 26.2344C18.2759 26.2344 16.9038 25.104 16.2007 23.4194C15.7007 22.2051 15.6455 20.8984 16.0552 19.9233ZM21.3696 27.0942C22.1367 26.6333 22.8618 26.1973 23.3354 25.4141C24.6421 23.2461 25.4312 21.9375 27.5 21.9375C29.5688 21.9375 30.3599 23.2461 31.6694 25.4141C32.144 26.1982 32.8706 26.6348 33.6401 27.0977C34.5225 27.6279 35.4341 28.1758 35.8276 29.2539C35.9807 29.6425 36.0577 30.0569 36.0547 30.4746C36.0547 32.23 34.6875 33.6582 33.0078 33.6582C32.1411 33.6582 31.2187 33.3579 30.2427 33.04C29.3042 32.7344 28.334 32.4185 27.4951 32.4185C26.6562 32.4185 25.6885 32.7344 24.7534 33.04C23.7793 33.356 22.8613 33.6562 21.9922 33.6562C20.3149 33.6562 18.9502 32.228 18.9502 30.4727C18.9488 30.0547 19.0275 29.6403 19.1821 29.252C19.5757 28.1729 20.4878 27.6245 21.3696 27.0942ZM32.6758 20.2212C32.0947 20.9502 31.3574 21.3516 30.5996 21.3516C30.4962 21.3515 30.3928 21.3439 30.2905 21.3286C28.71 21.0962 27.7251 19.1675 28.0483 16.9341C28.1836 15.9951 28.5449 15.1206 29.0625 14.4722C29.6426 13.7446 30.3809 13.3438 31.1382 13.3438C31.2416 13.3438 31.3449 13.3514 31.4473 13.3667C33.0278 13.5991 34.0127 15.5278 33.6895 17.7612C33.5547 18.6987 33.1934 19.5723 32.6758 20.2212ZM24.709 21.3286C24.6067 21.3439 24.5034 21.3515 24.3999 21.3516C23.6416 21.3516 22.9048 20.9502 22.3237 20.2212C21.8066 19.5723 21.4473 18.6987 21.3105 17.7603C20.9873 15.5278 21.9722 13.5991 23.5527 13.3657C23.6551 13.3505 23.7584 13.3428 23.8618 13.3428C24.6191 13.3437 25.3574 13.7446 25.9375 14.4722C26.4551 15.1206 26.8164 15.9951 26.9512 16.9351C27.2744 19.1675 26.2895 21.0962 24.709 21.3286ZM34.5513 26.0781L34.5444 26.0757C33.9619 25.8418 33.5112 25.3779 33.2412 24.7339C32.832 23.7573 32.8896 22.4512 33.395 21.2354C34.0947 19.5527 35.4663 18.4219 36.8076 18.4219C37.0917 18.4215 37.3732 18.4745 37.6377 18.5781L37.6445 18.5806C38.2256 18.8125 38.6763 19.2783 38.9463 19.9224C39.3555 20.8989 39.2979 22.2051 38.7925 23.4209C38.0928 25.1035 36.7212 26.2344 35.3799 26.2344C35.0963 26.2346 34.8153 26.1816 34.5513 26.0781Z" fill="#FAFAFA"/>
</svg>
