<svg width="55" height="47" viewBox="0 0 55 47" fill="none" xmlns="http://www.w3.org/2000/svg">
<path d="M49.734 0.443905C50.0191 0.728223 50.1792 1.11379 50.1792 1.51582C50.1792 1.91784 50.0191 2.30341 49.734 2.58773L34.0826 18.1934H29.7823L24.4602 23.4998H10.3735C9.83577 21.7443 9.47413 19.9398 9.29386 18.113C8.79004 18.1383 8.2264 18.1509 7.60296 18.1509C5.83299 18.1509 3.10201 18.0326 2.28089 17.4353C0.760296 15.4264 0 11.4132 0 11.4132C0 11.4132 4.23789 9.97133 6.08237 9.31939C6.08237 4.43135 12.4202 1.64166 15.6408 5.76101C16.4406 5.75646 17.353 6.01269 18.2076 6.53575C19.7525 7.48182 20.3364 11.7452 20.0019 13.6753C22.4424 16.5408 25.5642 17.7173 29.6516 18.1509L29.8082 18.1676L47.5839 0.443905C47.869 0.159673 48.2557 0 48.659 0C49.0622 0 49.4489 0.159673 49.734 0.443905ZM33.9046 18.3723L26.6104 25.6437V35.8245C30.7646 35.2711 34.3152 34.4115 38.7751 31.8386C42.0261 37.7804 44.7495 39.4875 46.1469 40.3654C46.7096 40.7186 47.0593 40.937 47.1384 41.2432C47.3208 41.9406 47.5124 42.4516 47.6614 42.8503C47.85 43.3491 47.9716 43.6736 47.926 43.9677H47.1384C46.7351 43.9677 46.3483 44.1275 46.0631 44.4118C45.778 44.6961 45.6178 45.0818 45.6178 45.4839C45.6178 45.886 45.778 46.2716 46.0631 46.5559C46.3483 46.8403 46.7351 47 47.1384 47H50.1795C50.5828 47 50.9696 46.8403 51.2548 46.5559C51.5399 46.2716 51.7001 45.886 51.7001 45.4839V38.6264C51.7001 35.629 47.1384 27.6359 47.1384 27.6359L53.981 36.387C54.5969 36.7706 55.4286 36.0338 54.7413 34.8709C54.4539 34.1068 54.1407 33.1061 53.7849 31.972C52.0909 26.564 49.4557 18.1509 44.2781 18.1509C43.5285 18.1509 42.4504 18.1903 41.1822 18.2343C39.0731 18.3101 36.4364 18.4056 33.9046 18.3723ZM23.4627 36.1914L23.5692 36.1808V26.5321H11.5352C12.7623 29.1899 14.2312 31.1139 15.3701 32.6058C15.582 32.8817 15.7807 33.1445 15.9662 33.3942C16.6946 34.3736 18.8173 40.6792 15.6545 43.9677H15.2059C14.8026 43.9677 14.4159 44.1275 14.1307 44.4118C13.8455 44.6961 13.6853 45.0818 13.6853 45.4839C13.6853 45.886 13.8455 46.2716 14.1307 46.5559C14.4159 46.8403 14.8026 47 15.2059 47H19.7677C20.1014 47.0001 20.4258 46.8907 20.6909 46.6888C20.9561 46.4869 21.1473 46.2036 21.2351 45.8826H21.2381C21.2462 45.8826 21.2533 45.8811 21.2594 45.8781C21.3233 45.8447 21.3187 45.6719 21.305 45.2837C21.2942 44.9837 21.2886 44.6834 21.2883 44.3831V36.4249L22.707 36.2733L22.7177 36.2718L23.4627 36.1914Z" fill="#5D5D5D"/>
</svg>
