<svg width="33" height="47" viewBox="0 0 33 47" fill="none" xmlns="http://www.w3.org/2000/svg">
<path d="M17.545 0.483168C17.4159 0.331638 17.2557 0.209993 17.0754 0.126589C16.8952 0.0431856 16.699 0 16.5006 0C16.3021 0 16.106 0.0431856 15.9257 0.126589C15.7454 0.209993 15.5852 0.331638 15.4561 0.483168C11.8284 4.74809 0 19.4928 0 30.4148C0 40.5928 6.37542 47 16.5 47C26.6246 47 33 40.5928 33 30.4148C33 19.4928 21.1716 4.74809 17.545 0.483168ZM18.3333 41.0109C18.1131 41.0114 17.896 40.9587 17.7002 40.8573C17.5045 40.7558 17.3359 40.6086 17.2085 40.428C17.0812 40.2474 16.9988 40.0387 16.9685 39.8194C16.9381 39.6002 16.9605 39.3768 17.034 39.1681C17.1277 38.8958 17.3046 38.6601 17.5393 38.4947C17.774 38.3293 18.0547 38.2425 18.3414 38.2467C20.1614 38.2428 21.9057 37.5143 23.1927 36.2207C24.4797 34.9271 25.2044 33.1737 25.2083 31.3443C25.2041 31.0561 25.2905 30.774 25.4551 30.5381C25.6196 30.3021 25.8541 30.1244 26.125 30.0301C26.3326 29.9563 26.5549 29.9338 26.773 29.9643C26.9911 29.9948 27.1987 30.0776 27.3784 30.2056C27.5581 30.3336 27.7046 30.5031 27.8055 30.6999C27.9064 30.8966 27.9588 31.1149 27.9583 31.3362C27.9556 33.9013 26.9407 36.3605 25.1362 38.1742C23.3318 39.988 20.8852 41.0082 18.3333 41.0109Z" fill="#5D5D5D"/>
</svg>
