<svg width="436" height="209" viewBox="0 0 436 209" fill="none" xmlns="http://www.w3.org/2000/svg">
<rect width="436" height="209" rx="10" fill="#D9D9D9"/>
<path d="M144 57.7083C144 55.9292 144.707 54.2229 145.965 52.9648C147.223 51.7068 148.929 51 150.708 51H284.875C286.654 51 288.36 51.7068 289.618 52.9648C290.877 54.2229 291.583 55.9292 291.583 57.7083V151.625C291.583 153.404 290.877 155.11 289.618 156.369C288.36 157.627 286.654 158.333 284.875 158.333H150.708C148.929 158.333 147.223 157.627 145.965 156.369C144.707 155.11 144 153.404 144 151.625V57.7083ZM224.5 77.8333V91.25H264.75V77.8333H224.5ZM258.042 104.667H224.5V118.083H258.042V104.667ZM207.729 91.25C207.729 86.8021 205.962 82.5364 202.817 79.3912C199.672 76.2461 195.406 74.4792 190.958 74.4792C186.51 74.4792 182.245 76.2461 179.1 79.3912C175.954 82.5364 174.187 86.8021 174.187 91.25C174.187 95.6979 175.954 99.9636 179.1 103.109C182.245 106.254 186.51 108.021 190.958 108.021C195.406 108.021 199.672 106.254 202.817 103.109C205.962 99.9636 207.729 95.6979 207.729 91.25ZM190.958 114.729C184.731 114.729 178.759 117.203 174.356 121.606C169.953 126.009 167.479 131.981 167.479 138.208H214.438C214.438 131.981 211.964 126.009 207.561 121.606C203.157 117.203 197.185 114.729 190.958 114.729Z" fill="#5D5D5D"/>
</svg>
