<svg width="53" height="51" viewBox="0 0 53 51" fill="none" xmlns="http://www.w3.org/2000/svg">
<path d="M28.9661 4.41835C28.7147 3.98679 28.3547 3.62871 27.9218 3.37984C27.4889 3.13097 26.9984 3 26.4991 3C25.9999 3 25.5094 3.13097 25.0765 3.37984C24.6436 3.62871 24.2836 3.98679 24.0322 4.41835L17.6478 15.3833L5.24898 18.0708C4.76127 18.1769 4.30985 18.4089 3.93974 18.7439C3.56963 19.0789 3.29375 19.5051 3.1396 19.98C2.98546 20.455 2.95842 20.962 3.06121 21.4506C3.16399 21.9393 3.393 22.3924 3.7254 22.7649L12.177 32.2284L10.8979 44.8548C10.8474 45.3519 10.9282 45.8537 11.1322 46.3098C11.3361 46.766 11.6561 47.1607 12.0603 47.4544C12.4644 47.7482 12.9384 47.9307 13.4351 47.9838C13.9318 48.0369 14.4337 47.9588 14.8907 47.7571L26.4991 42.638L38.1076 47.7571C38.5646 47.9588 39.0665 48.0369 39.5632 47.9838C40.0599 47.9307 40.5339 47.7482 40.938 47.4544C41.3421 47.1607 41.6622 46.766 41.8661 46.3098C42.0701 45.8537 42.1509 45.3519 42.1004 44.8548L40.8213 32.2284L49.2729 22.7672C49.6059 22.3947 49.8354 21.9414 49.9385 21.4525C50.0416 20.9635 50.0147 20.4561 49.8605 19.9808C49.7063 19.5055 49.4302 19.079 49.0598 18.7439C48.6893 18.4087 48.2374 18.1766 47.7493 18.0708L35.3505 15.3833L28.9661 4.41835Z" fill="#FAFAFA" stroke="#F75959" stroke-width="5"/>
</svg>
