<svg width="34" height="34" viewBox="0 0 34 34" fill="none" xmlns="http://www.w3.org/2000/svg">
<path d="M32.7343 7.00002L26.9117 1.15643C26.1518 0.440053 25.156 0.0290037 24.1138 0.00147744C23.0715 -0.0260488 22.0556 0.331869 21.2592 1.00715L2.13395 20.2014C1.44707 20.8966 1.01939 21.8078 0.922691 22.782L0.00893137 31.6753C-0.0196949 31.9877 0.020692 32.3026 0.127213 32.5975C0.233734 32.8924 0.403765 33.1601 0.625188 33.3815C0.823751 33.5791 1.05924 33.7355 1.31814 33.8417C1.57705 33.9478 1.85429 34.0016 2.13395 34H2.32521L11.1866 33.1895C12.1573 33.0925 13.0652 32.6633 13.7578 31.9739L32.883 12.7796C33.6254 11.9926 34.0265 10.9423 33.9986 9.85898C33.9708 8.77563 33.5161 7.74755 32.7343 7.00002ZM25.5092 14.1232L19.8142 8.4076L23.9579 4.14221L29.7593 9.96447L25.5092 14.1232Z" fill="#5D5D5D"/>
</svg>
