<svg width="33" height="35" viewBox="0 0 33 35" fill="none" xmlns="http://www.w3.org/2000/svg">
<path d="M21.314 1.96737C19.8889 1.01055 18.2136 0.5 16.5 0.5C14.2022 0.5 11.9981 1.41713 10.3726 3.05041C8.747 4.68377 7.83333 6.89958 7.83333 9.21053C7.83333 10.9338 8.34193 12.6182 9.29454 14.0508C10.2471 15.4832 11.6008 16.5993 13.1842 17.2583C14.7675 17.9173 16.5096 18.0897 18.1903 17.7538C19.871 17.4179 21.4152 16.5887 22.6274 15.3706C23.8397 14.1526 24.6655 12.6004 25.0001 10.9103C25.3346 9.22017 25.1629 7.46831 24.5066 5.87637C23.8504 4.28446 22.7392 2.92421 21.314 1.96737ZM19.8343 14.2206C18.8476 14.8831 17.6872 15.2368 16.5 15.2368C14.9079 15.2368 13.3815 14.6013 12.2565 13.4709C11.1316 12.3406 10.5 10.808 10.5 9.21053C10.5 8.01916 10.8516 6.85436 11.5106 5.8634C12.1696 4.87241 13.1065 4.09967 14.2031 3.64326C15.2998 3.18684 16.5066 3.06738 17.671 3.30009C18.8353 3.5328 19.9045 4.10715 20.7435 4.95012C21.5824 5.79307 22.1535 6.86676 22.3848 8.0353C22.6161 9.20382 22.4974 10.415 22.0436 11.5159C21.5898 12.6168 20.8211 13.5581 19.8343 14.2206ZM0.5 33.1579V34.5H3.16667V33.1579C3.16667 30.5833 4.18454 28.1136 5.99712 26.2924C7.80979 24.471 10.2688 23.4474 12.8333 23.4474H20.1667C22.7312 23.4474 25.1902 24.471 27.0029 26.2924C28.8155 28.1136 29.8333 30.5833 29.8333 33.1579V34.5H32.5V33.1579C32.5 29.8698 31.2 26.7169 28.8868 24.3926C26.5737 22.0684 23.4369 20.7632 20.1667 20.7632H12.8333C9.5631 20.7632 6.42633 22.0684 4.11319 24.3926C1.79998 26.7169 0.5 29.8698 0.5 33.1579Z" fill="#8D8D8D" stroke="#8D8D8D"/>
</svg>
