<svg width="54" height="51" viewBox="0 0 54 51" fill="none" xmlns="http://www.w3.org/2000/svg">
<path d="M29.3662 1.60331C29.0819 1.11547 28.6746 0.710699 28.1851 0.429373C27.6955 0.148047 27.1408 0 26.5762 0C26.0115 0 25.4568 0.148047 24.9672 0.429373C24.4777 0.710699 24.0704 1.11547 23.7862 1.60331L16.5657 13.9981L2.5434 17.0361C1.99183 17.156 1.48131 17.4183 1.06273 17.797C0.644154 18.1757 0.33215 18.6575 0.157818 19.1943C-0.0165146 19.7312 -0.0470872 20.3043 0.0691557 20.8567C0.185399 21.409 0.444396 21.9213 0.82032 22.3423L10.3787 33.0399L8.93199 47.3128C8.87491 47.8748 8.96628 48.442 9.19696 48.9577C9.42763 49.4733 9.78955 49.9194 10.2466 50.2515C10.7036 50.5835 11.2397 50.7899 11.8014 50.8499C12.3631 50.91 12.9308 50.8216 13.4476 50.5936L26.5762 44.807L39.7046 50.5936C40.2215 50.8216 40.7892 50.91 41.3509 50.8499C41.9126 50.7899 42.4487 50.5835 42.9057 50.2515C43.3628 49.9194 43.7247 49.4733 43.9553 48.9577C44.186 48.442 44.2774 47.8748 44.2203 47.3128L42.7736 33.0399L52.332 22.3449C52.7086 21.9239 52.9681 21.4114 53.0847 20.8587C53.2013 20.3061 53.1709 19.7324 52.9966 19.1952C52.8222 18.6579 52.5099 18.1758 52.0909 17.7969C51.672 17.4181 51.161 17.1557 50.6089 17.0361L36.5866 13.9981L29.3662 1.60331Z" fill="#F75959"/>
</svg>
