<svg width="44" height="42" viewBox="0 0 44 42" fill="none" xmlns="http://www.w3.org/2000/svg">
<path d="M8.66634 0C6.3678 0 4.1634 0.913092 2.53809 2.53841C0.912772 4.16372 -0.000322342 6.36812 -0.000322342 8.66667V26C-0.000322342 28.2985 0.912772 30.5029 2.53809 32.1283C4.1634 33.7536 6.3678 34.6667 8.66634 34.6667H18.9017L29.2193 40.8568C29.5301 41.0433 29.8826 41.1489 30.2447 41.1638C30.6067 41.1788 30.9668 41.1028 31.2918 40.9426C31.6169 40.7824 31.8966 40.5433 32.1054 40.2471C32.3141 39.9508 32.4452 39.607 32.4867 39.247L32.4997 39V34.6667H34.6663C36.8899 34.6667 39.0283 33.8121 40.6394 32.2796C42.2505 30.7471 43.211 28.6541 43.3222 26.4333L43.333 26V8.66667C43.333 6.36812 42.4199 4.16372 40.7946 2.53841C39.1693 0.913092 36.9649 0 34.6663 0H8.66634ZM17.333 19.5H30.333C30.9076 19.5 31.4587 19.7283 31.8651 20.1346C32.2714 20.5409 32.4997 21.092 32.4997 21.6667C32.4997 22.2413 32.2714 22.7924 31.8651 23.1987C31.4587 23.6051 30.9076 23.8333 30.333 23.8333H17.333C16.7584 23.8333 16.2073 23.6051 15.8009 23.1987C15.3946 22.7924 15.1663 22.2413 15.1663 21.6667C15.1663 21.092 15.3946 20.5409 15.8009 20.1346C16.2073 19.7283 16.7584 19.5 17.333 19.5ZM12.9997 10.8333H30.333C30.9076 10.8333 31.4587 11.0616 31.8651 11.4679C32.2714 11.8743 32.4997 12.4254 32.4997 13C32.4997 13.5746 32.2714 14.1257 31.8651 14.5321C31.4587 14.9384 30.9076 15.1667 30.333 15.1667H12.9997C12.425 15.1667 11.8739 14.9384 11.4676 14.5321C11.0613 14.1257 10.833 13.5746 10.833 13C10.833 12.4254 11.0613 11.8743 11.4676 11.4679C11.8739 11.0616 12.425 10.8333 12.9997 10.8333Z" fill="#5D5D5D"/>
</svg>
