<svg width="54" height="54" viewBox="0 0 54 54" fill="none" xmlns="http://www.w3.org/2000/svg">
<path d="M17.0102 0H36.9302C37.7102 0 38.4902 0.33 39.0302 0.87L53.1002 14.94C53.6402 15.48 53.9702 16.26 53.9702 17.04V36.93C53.9702 37.74 53.6402 38.49 53.1002 39.06L39.0602 53.1C38.4902 53.67 37.7102 54 36.9302 54H17.0402C16.2302 54 15.4802 53.67 14.9102 53.13L0.870213 39.09C0.592168 38.8097 0.372194 38.4772 0.2229 38.1117C0.0736066 37.7462 -0.00206715 37.3548 0.00021553 36.96V17.04C0.00021553 16.23 0.330213 15.48 0.870213 14.91L14.9102 0.87C15.4502 0.33 16.2302 0 17.0102 0ZM26.9702 42.9C29.1302 42.9 30.8702 41.16 30.8702 39C30.8702 36.84 29.1302 35.1 26.9702 35.1C24.8102 35.1 23.0702 36.84 23.0702 39C23.0702 41.16 24.8102 42.9 26.9702 42.9ZM26.9702 30C28.6202 30 29.9702 28.65 29.9702 27V15C29.9702 13.35 28.6202 12 26.9702 12C25.3202 12 23.9702 13.35 23.9702 15V27C23.9702 28.65 25.3202 30 26.9702 30Z" fill="#5D5D5D"/>
</svg>
