<svg width="37" height="41" viewBox="0 0 37 41" fill="none" xmlns="http://www.w3.org/2000/svg">
<path d="M2.05556 12.3C3.19081 12.3 4.06999 11.324 4.6197 10.3307C5.3211 9.06336 6.67547 8.2 8.22222 8.2H21.3593C23.4773 8.2 25.5088 7.36011 27.0085 5.8645L32.0375 0.849136C32.5827 0.305364 33.3213 0 34.0914 0V0C35.6978 0 37 1.30224 37 2.90863V29.8914C37 31.4978 35.6978 32.8 34.0914 32.8V32.8C33.3213 32.8 32.5827 32.4946 32.0375 31.9509L27.0085 26.9355C25.5088 25.4399 23.4773 24.6 21.3593 24.6H8.22222C7.13189 24.6 6.08621 24.168 5.31523 23.3991C5.03692 23.1216 4.80263 22.8083 4.61686 22.4702C4.07023 21.4752 3.19081 20.5 2.05556 20.5V20.5C0.920303 20.5 0 19.5797 0 18.4444V14.3556C0 13.2203 0.920303 12.3 2.05556 12.3V12.3ZM22.6139 30.75C21.4786 30.75 20.5556 31.6703 20.5556 32.8056V37.4141C20.5556 39.3945 18.9501 41 16.9696 41V41C15.428 41 14.0589 40.0147 13.5693 38.5529L11.3195 31.8349C11.1024 31.1868 10.4954 30.75 9.81198 30.75V30.75C8.93398 30.75 8.22222 30.0382 8.22222 29.1602V28.7C8.22222 27.5678 9.14004 26.65 10.2722 26.65H22.6167C23.7489 26.65 24.6667 27.5678 24.6667 28.7V28.7C24.6667 29.8322 23.7461 30.75 22.6139 30.75V30.75Z" fill="#F75959"/>
</svg>
