<svg width="44" height="44" viewBox="0 0 44 44" fill="none" xmlns="http://www.w3.org/2000/svg">
<circle cx="22" cy="22" r="22" fill="#F75959"/>
<path d="M8.05706 10.8438L9.84175 9.02158L35.2458 35.1635L33.475 37L30.6865 34.1304C30.4913 34.2739 30.2821 34.3887 30.073 34.4891C27.5772 35.6656 24.6213 33.2265 21.8466 33.2265C19.072 33.2265 16.0882 35.7661 13.6342 34.4891C12.2399 33.7861 11.2779 31.9208 11.4591 30.3713C11.7101 28.2334 14.2059 27.0856 15.6838 25.5217C16.7156 24.4743 17.594 22.9247 18.584 21.6764L8.05706 10.8438ZM16.9108 9.02158C18.5561 8.77767 20.299 10.6285 20.8009 13.1825C21.0519 14.402 20.9682 15.5642 20.6057 16.4681L15.0704 10.7433C15.4329 9.81072 16.0743 9.16506 16.9108 9.02158ZM26.88 9.02158C28.5392 9.29419 29.4595 11.5612 28.9715 14.1007C28.4416 16.6547 26.6988 18.5056 25.0535 18.2473C23.3943 17.989 22.488 15.7221 23.0039 13.1825C23.5058 10.6285 25.2487 8.77767 26.88 9.02158ZM9.45135 15.6216C11.0408 14.9186 13.202 16.1955 14.3314 18.4195C15.391 20.6864 15.0285 23.0682 13.453 23.7712C11.8774 24.4743 9.73021 23.2117 8.62872 20.959C7.52723 18.7064 7.91763 16.3103 9.45135 15.6216ZM34.5486 15.6216C36.0824 16.3103 36.4728 18.7064 35.3713 20.959C34.2698 23.2117 32.1226 24.4743 30.547 23.7712C28.9715 23.0682 28.609 20.6864 29.6686 18.4195C30.798 16.1955 32.9592 14.9186 34.5486 15.6216Z" fill="#FAFAFA"/>
</svg>
