<svg width="46" height="37" viewBox="0 0 46 37" fill="none" xmlns="http://www.w3.org/2000/svg">
<path fill-rule="evenodd" clip-rule="evenodd" d="M13.8 0.00116089C11.36 0.00116089 9.01995 0.975681 7.29462 2.71034C5.56928 4.44499 4.6 6.7977 4.6 9.25087C4.6 11.704 5.56928 14.0567 7.29462 15.7914C9.01995 17.5261 11.36 18.5006 13.8 18.5006C16.24 18.5006 18.58 17.5261 20.3054 15.7914C22.0307 14.0567 23 11.704 23 9.25087C23 6.7977 22.0307 4.44499 20.3054 2.71034C18.58 0.975681 16.24 0.00116089 13.8 0.00116089ZM9.2 20.813C6.76001 20.813 4.41995 21.7875 2.69462 23.5222C0.969283 25.2568 0 27.6095 0 30.0627V32.3751C0 33.6017 0.484641 34.7781 1.34731 35.6454C2.20998 36.5127 3.38 37 4.6 37H23C24.22 37 25.39 36.5127 26.2527 35.6454C27.1154 34.7781 27.6 33.6017 27.6 32.3751V30.0627C27.6 27.6095 26.6307 25.2568 24.9054 23.5222C23.18 21.7875 20.84 20.813 18.4 20.813H9.2ZM25.875 15.9685C26.9744 13.9798 27.6 11.6905 27.6 9.25087C27.6005 6.90015 27.0069 4.58784 25.875 2.53096C27.181 1.28856 28.8204 0.458123 30.5907 0.142286C32.361 -0.173551 34.1845 0.0390519 35.8359 0.753821C37.4874 1.46859 38.8943 2.65419 39.8828 4.16411C40.8713 5.67402 41.3981 7.44206 41.3981 9.24971C41.3981 11.0574 40.8713 12.8254 39.8828 14.3353C38.8943 15.8452 37.4874 17.0308 35.8359 17.7456C34.1845 18.4604 32.361 18.673 30.5907 18.3571C28.8204 18.0413 27.181 17.2109 25.875 15.9685ZM30.9718 37C31.7538 35.6403 32.2023 34.0609 32.2023 32.3751V30.0627C32.2066 26.649 30.9548 23.3544 28.6879 20.813H36.8C39.24 20.813 41.58 21.7875 43.3054 23.5222C45.0307 25.2568 46 27.6095 46 30.0627V32.3751C46 33.6017 45.5154 34.7781 44.6527 35.6454C43.79 36.5127 42.62 37 41.4 37H30.9718Z" fill="#FAFAFA"/>
</svg>
