<svg width="43" height="43" viewBox="0 0 43 43" fill="none" xmlns="http://www.w3.org/2000/svg">
<path d="M10.75 21.5C11.1573 21.5 11.5479 21.3382 11.8359 21.0502C12.1239 20.7622 12.2857 20.3716 12.2857 19.9643C12.2857 19.557 12.1239 19.1664 11.8359 18.8784C11.5479 18.5904 11.1573 18.4286 10.75 18.4286C10.3427 18.4286 9.95209 18.5904 9.66409 18.8784C9.37608 19.1664 9.21429 19.557 9.21429 19.9643C9.21429 20.3716 9.37608 20.7622 9.66409 21.0502C9.95209 21.3382 10.3427 21.5 10.75 21.5ZM12.2857 32.25C12.2857 32.6573 12.1239 33.0479 11.8359 33.3359C11.5479 33.6239 11.1573 33.7857 10.75 33.7857C10.3427 33.7857 9.95209 33.6239 9.66409 33.3359C9.37608 33.0479 9.21429 32.6573 9.21429 32.25C9.21429 31.8427 9.37608 31.4521 9.66409 31.1641C9.95209 30.8761 10.3427 30.7143 10.75 30.7143C11.1573 30.7143 11.5479 30.8761 11.8359 31.1641C12.1239 31.4521 12.2857 31.8427 12.2857 32.25ZM0 9.21429C0 6.7705 0.970788 4.42682 2.6988 2.6988C4.42682 0.970788 6.7705 0 9.21429 0H33.7857C36.2295 0 38.5732 0.970788 40.3012 2.6988C42.0292 4.42682 43 6.7705 43 9.21429V33.7857C43 36.2295 42.0292 38.5732 40.3012 40.3012C38.5732 42.0292 36.2295 43 33.7857 43H9.21429C6.7705 43 4.42682 42.0292 2.6988 40.3012C0.970788 38.5732 0 36.2295 0 33.7857V9.21429ZM7.67857 6.14286C7.27127 6.14286 6.88066 6.30466 6.59266 6.59266C6.30466 6.88066 6.14286 7.27127 6.14286 7.67857C6.14286 8.08587 6.30466 8.47648 6.59266 8.76449C6.88066 9.05249 7.27127 9.21429 7.67857 9.21429H35.3214C35.7287 9.21429 36.1193 9.05249 36.4073 8.76449C36.6953 8.47648 36.8571 8.08587 36.8571 7.67857C36.8571 7.27127 36.6953 6.88066 36.4073 6.59266C36.1193 6.30466 35.7287 6.14286 35.3214 6.14286H7.67857ZM10.75 24.5714C11.9719 24.5714 13.1437 24.086 14.0077 23.222C14.8717 22.358 15.3571 21.1862 15.3571 19.9643C15.3571 18.7424 14.8717 17.5705 14.0077 16.7065C13.1437 15.8425 11.9719 15.3571 10.75 15.3571C9.52811 15.3571 8.35626 15.8425 7.49226 16.7065C6.62825 17.5705 6.14286 18.7424 6.14286 19.9643C6.14286 21.1862 6.62825 22.358 7.49226 23.222C8.35626 24.086 9.52811 24.5714 10.75 24.5714ZM15.3571 32.25C15.3571 31.0281 14.8717 29.8563 14.0077 28.9923C13.1437 28.1283 11.9719 27.6429 10.75 27.6429C9.52811 27.6429 8.35626 28.1283 7.49226 28.9923C6.62825 29.8563 6.14286 31.0281 6.14286 32.25C6.14286 33.4719 6.62825 34.6437 7.49226 35.5077C8.35626 36.3717 9.52811 36.8571 10.75 36.8571C11.9719 36.8571 13.1437 36.3717 14.0077 35.5077C14.8717 34.6437 15.3571 33.4719 15.3571 32.25ZM18.4286 19.9643C18.4286 20.3716 18.5904 20.7622 18.8784 21.0502C19.1664 21.3382 19.557 21.5 19.9643 21.5H35.3214C35.7287 21.5 36.1193 21.3382 36.4073 21.0502C36.6953 20.7622 36.8571 20.3716 36.8571 19.9643C36.8571 19.557 36.6953 19.1664 36.4073 18.8784C36.1193 18.5904 35.7287 18.4286 35.3214 18.4286H19.9643C19.557 18.4286 19.1664 18.5904 18.8784 18.8784C18.5904 19.1664 18.4286 19.557 18.4286 19.9643ZM19.9643 30.7143C19.557 30.7143 19.1664 30.8761 18.8784 31.1641C18.5904 31.4521 18.4286 31.8427 18.4286 32.25C18.4286 32.6573 18.5904 33.0479 18.8784 33.3359C19.1664 33.6239 19.557 33.7857 19.9643 33.7857H35.3214C35.7287 33.7857 36.1193 33.6239 36.4073 33.3359C36.6953 33.0479 36.8571 32.6573 36.8571 32.25C36.8571 31.8427 36.6953 31.4521 36.4073 31.1641C36.1193 30.8761 35.7287 30.7143 35.3214 30.7143H19.9643Z" fill="#5D5D5D"/>
</svg>
