<svg width="40" height="40" viewBox="0 0 40 40" fill="none" xmlns="http://www.w3.org/2000/svg">
<path d="M20 31.1111C20.6296 31.1111 21.1578 30.8978 21.5844 30.4711C22.0111 30.0444 22.2237 29.517 22.2222 28.8889C22.2207 28.2607 22.0074 27.7333 21.5822 27.3067C21.157 26.88 20.6296 26.6667 20 26.6667C19.3704 26.6667 18.843 26.88 18.4178 27.3067C17.9926 27.7333 17.7793 28.2607 17.7778 28.8889C17.7763 29.517 17.9896 30.0452 18.4178 30.4733C18.8459 30.9015 19.3733 31.1141 20 31.1111ZM17.7778 22.2222H22.2222V8.88889H17.7778V22.2222ZM11.6667 40L0 28.3333V11.6667L11.6667 0H28.3333L40 11.6667V28.3333L28.3333 40H11.6667Z" fill="#5D5D5D"/>
</svg>
