<svg width="32" height="34" viewBox="0 0 32 34" fill="none" xmlns="http://www.w3.org/2000/svg">
<path fill-rule="evenodd" clip-rule="evenodd" d="M13.0033 0.2584C13.6265 -5.96046e-08 14.4181 0 15.9995 0C17.581 0 18.3709 -5.96046e-08 18.9957 0.2584C19.4069 0.427967 19.7807 0.677929 20.0958 0.993899C20.4108 1.30987 20.6609 1.68561 20.8315 2.0995C20.9898 2.4786 21.0505 2.9223 21.0757 3.5666C21.0877 4.03325 21.2171 4.48916 21.4516 4.8915C21.6861 5.29385 22.0181 5.62942 22.4163 5.8667C22.8227 6.09468 23.2794 6.21545 23.7443 6.21782C24.2092 6.2202 24.6671 6.10411 25.0757 5.8803C25.645 5.5777 26.0576 5.4111 26.4652 5.3567C27.3568 5.23927 28.2584 5.48113 28.9746 6.0299C29.5102 6.4413 29.906 7.1281 30.6959 8.5C31.4875 9.8719 31.8816 10.557 31.9708 11.2285C32.0887 12.1227 31.8462 13.0271 31.2972 13.7428C31.0479 14.0692 30.6959 14.3429 30.1519 14.6863C29.3485 15.1912 28.8332 16.0514 28.8332 17C28.8332 17.9486 29.3485 18.8088 30.1502 19.312C30.6959 19.6571 31.0479 19.9308 31.2988 20.2572C31.569 20.6112 31.7675 21.0154 31.8828 21.4468C31.9981 21.8783 32.028 22.3284 31.9708 22.7715C31.8816 23.4413 31.4875 24.1281 30.6959 25.5C29.9043 26.8719 29.5102 27.557 28.9746 27.9701C28.2605 28.5192 27.3578 28.7606 26.4652 28.6433C26.0576 28.5889 25.645 28.4223 25.0757 28.1197C24.6669 27.8956 24.2086 27.7793 23.7434 27.7817C23.2783 27.7841 22.8212 27.905 22.4147 28.1333C21.5961 28.6093 21.1111 29.4848 21.0757 30.4334C21.0505 31.0794 20.9898 31.5214 20.8315 31.9005C20.4879 32.7335 19.8277 33.3965 18.9957 33.7416C18.3726 34 17.581 34 15.9995 34C14.4181 34 13.6265 34 13.0033 33.7416C12.5922 33.572 12.2183 33.3221 11.9033 33.0061C11.5882 32.6901 11.3382 32.3144 11.1675 31.9005C11.0092 31.5214 10.9486 31.0794 10.9233 30.4334C10.8896 29.4848 10.4029 28.6076 9.5827 28.1333C9.17637 27.9053 8.71962 27.7846 8.25475 27.7822C7.78987 27.7798 7.33193 27.8959 6.92334 28.1197C6.35408 28.4223 5.94144 28.5889 5.53387 28.6433C4.64124 28.7623 3.73851 28.5192 3.0244 27.9701C2.48883 27.5587 2.09304 26.8719 1.30315 25.5C0.51157 24.1281 0.117466 23.443 0.028204 22.7715C-0.0287323 22.3283 0.00146484 21.8781 0.117062 21.4467C0.232658 21.0152 0.431387 20.611 0.701885 20.2572C0.951147 19.9308 1.30315 19.6571 1.84715 19.3137C2.65051 18.8088 3.16588 17.9486 3.16588 17C3.16588 16.0514 2.65051 15.1912 1.84883 14.688C1.30315 14.3429 0.951149 14.0692 0.700203 13.7428C0.43 13.3888 0.231571 12.9846 0.116264 12.5532C0.000957489 12.1217 -0.0289688 11.6716 0.028204 11.2285C0.117466 10.5587 0.51157 9.8719 1.30315 8.5C2.09472 7.1281 2.48883 6.443 3.0244 6.0299C3.74064 5.48113 4.64222 5.23927 5.53387 5.3567C5.94144 5.4111 6.35408 5.5777 6.92334 5.8803C7.33214 6.10441 7.79039 6.22067 8.25559 6.21829C8.72079 6.21591 9.17785 6.09498 9.58438 5.8667C9.98234 5.62921 10.314 5.29355 10.5482 4.89122C10.7824 4.48889 10.9115 4.03309 10.9233 3.5666C10.9486 2.9206 11.0092 2.4786 11.1675 2.0995C11.3382 1.68561 11.5882 1.30987 11.9033 0.993899C12.2183 0.677929 12.5922 0.427967 13.0033 0.2584ZM15.9995 22.1C13.1869 22.1 10.9082 19.8169 10.9082 17C10.9082 14.1831 13.1886 11.9 15.9995 11.9C18.8105 11.9 21.0909 14.1831 21.0909 17C21.0909 19.8169 18.8105 22.1 15.9995 22.1Z" fill="#FAFAFA"/>
</svg>
