<svg width="49" height="49" viewBox="0 0 49 49" fill="none" xmlns="http://www.w3.org/2000/svg">
<path d="M29.3792 18.3333C24.3166 18.3333 20.2126 14.2293 20.2126 9.16667C20.2126 4.10406 24.3166 0 29.3792 0C34.4418 0 38.5459 4.10406 38.5459 9.16667C38.5459 14.2293 34.4418 18.3333 29.3792 18.3333Z" fill="#5D5D5D"/>
<path d="M26.6752 45.0999C27.1801 44.6006 27.5096 43.951 27.6142 43.2487C27.7189 42.5463 27.5931 41.8289 27.2558 41.2041L26.446 39.6763L28.1113 39.1721C28.7904 38.9596 29.3816 38.5313 29.7952 37.9523C30.2088 37.3733 30.4222 36.6751 30.403 35.9638V32.8319C30.4043 32.1237 30.1777 31.4339 29.7568 30.8644C29.3358 30.2949 28.7429 29.8759 28.0655 29.6694L26.4002 29.1652L27.1947 27.6374C27.5221 27.0211 27.6467 26.3171 27.5507 25.6258C27.4547 24.9345 27.143 24.2912 26.6599 23.7874C27.8353 23.6336 29.019 23.552 30.2044 23.543C33.7056 23.4606 37.1818 24.1517 40.3851 25.5672C43.5885 26.9827 46.44 29.0876 48.7363 31.7319V43.5721C48.7363 43.9773 48.5754 44.3659 48.2889 44.6524C48.0023 44.939 47.6137 45.0999 47.2086 45.0999H26.6752Z" fill="#5D5D5D"/>
<path d="M0.306189 32.3277L3.36175 31.4111C3.57309 30.6564 3.87041 29.9285 4.24786 29.2416L2.72008 26.4C2.66103 26.2945 2.63945 26.1721 2.65887 26.0528C2.6783 25.9335 2.73757 25.8243 2.82702 25.743L5.0423 23.5125C5.12762 23.4294 5.23642 23.3746 5.35393 23.3555C5.47144 23.3364 5.59199 23.3538 5.69925 23.4055L8.52564 24.9333C9.22117 24.555 9.95313 24.2479 10.7104 24.0166L11.6423 20.9611C11.6833 20.8484 11.7582 20.7512 11.8567 20.6828C11.9552 20.6144 12.0724 20.5782 12.1923 20.5791H15.3701C15.4892 20.5824 15.6044 20.6223 15.7001 20.6934C15.7957 20.7645 15.8672 20.8633 15.9048 20.9763L16.8215 24.0319C17.5926 24.2583 18.3357 24.5709 19.0367 24.9638L21.802 23.4361C21.9095 23.3789 22.0323 23.357 22.1529 23.3735C22.2736 23.3899 22.386 23.4439 22.4742 23.5277L24.7201 25.7277C24.8085 25.813 24.8668 25.9247 24.8861 26.0459C24.9054 26.1672 24.8846 26.2915 24.827 26.4L23.2992 29.1805C23.709 29.8704 24.042 30.603 24.2923 31.3652L27.3479 32.2972C27.4634 32.3306 27.5649 32.401 27.6366 32.4976C27.7084 32.5941 27.7465 32.7116 27.7451 32.8319V35.9638C27.7465 36.0841 27.7084 36.2016 27.6366 36.2982C27.5649 36.3948 27.4634 36.4652 27.3479 36.4986L24.2923 37.4305C24.0632 38.1787 23.7559 38.9008 23.3756 39.5847L24.9034 42.4875C24.961 42.5959 24.9818 42.7202 24.9625 42.8415C24.9432 42.9627 24.8849 43.0745 24.7965 43.1597L22.5201 45.375C22.4318 45.4588 22.3194 45.5127 22.1988 45.5292C22.0781 45.5456 21.9554 45.5238 21.8479 45.4666L18.9909 43.9388C18.3115 44.3055 17.5943 44.5975 16.852 44.8097L15.9354 47.9416C15.8969 48.0571 15.8231 48.1576 15.7244 48.2289C15.6257 48.3002 15.5071 48.3387 15.3854 48.3388H12.2534C12.1343 48.3355 12.0191 48.2956 11.9234 48.2246C11.8278 48.1535 11.7563 48.0547 11.7187 47.9416L10.802 44.8097C10.069 44.5989 9.36183 44.3068 8.69369 43.9388L5.80619 45.4666C5.69868 45.5238 5.57593 45.5456 5.4553 45.5292C5.33466 45.5127 5.22225 45.4588 5.13397 45.375L2.90341 43.1597C2.81958 43.0714 2.76562 42.959 2.74917 42.8383C2.73272 42.7177 2.75461 42.595 2.81174 42.4875L4.33953 39.6152C3.97491 38.9455 3.68298 38.2387 3.46869 37.5069L0.413133 36.575C0.298345 36.538 0.197463 36.4671 0.123813 36.3717C0.050162 36.2762 0.00720716 36.1606 0.00063194 36.0402V32.8777C-0.00309724 32.767 0.023371 32.6573 0.0771945 32.5604C0.131018 32.4635 0.210171 32.3831 0.306189 32.3277ZM13.7965 39.5388C14.8063 39.5419 15.7944 39.2452 16.6356 38.6863C17.4767 38.1274 18.1331 37.3316 18.5217 36.3994C18.9103 35.4673 19.0135 34.4408 18.8183 33.45C18.6232 32.4591 18.1384 31.5485 17.4254 30.8333C16.7123 30.1181 15.8031 29.6306 14.8129 29.4325C13.8226 29.2343 12.7958 29.3345 11.8625 29.7203C10.9292 30.106 10.1314 30.7601 9.57002 31.5995C9.00864 32.439 8.70897 33.4262 8.70897 34.4361C8.70896 35.7868 9.24448 37.0824 10.1981 38.0389C11.1518 38.9954 12.4458 39.5348 13.7965 39.5388Z" fill="#5D5D5D"/>
</svg>
