<svg width="31" height="29" viewBox="0 0 31 29" fill="none" xmlns="http://www.w3.org/2000/svg">
<path d="M19.7608 10.2402C16.933 10.2402 14.6407 7.94782 14.6407 5.12008C14.6407 2.29234 16.933 0 19.7608 0C22.5885 0 24.8809 2.29234 24.8809 5.12008C24.8809 7.94782 22.5885 10.2402 19.7608 10.2402Z" fill="#5D5D5D"/>
<path d="M15.197 23.0002C15.5587 22.7918 15.7947 22.5207 15.8696 22.2275C15.9446 21.9344 15.8545 21.635 15.6129 21.3742L15.0328 20.7365L16.2257 20.5261C16.7122 20.4374 17.1357 20.2586 17.4319 20.017C17.7282 19.7753 17.881 19.4839 17.8673 19.187V17.8799C17.8682 17.5843 17.7059 17.2964 17.4044 17.0587C17.1029 16.821 16.6781 16.6461 16.1929 16.5599L15 16.3495L15.5691 15.7118C15.8037 15.4546 15.8929 15.1608 15.8241 14.8723C15.7554 14.5837 15.5321 14.3152 15.186 14.105C16.028 14.0408 16.8759 14.0067 17.725 14.0029C20.233 13.9685 22.7054 13.9092 25 14.5C27.7663 15.2123 31.0003 17.8717 31 20V22.3625C31 22.5317 30.9997 23.0002 30.9997 23.0002C30.9997 23.0002 30.1959 23.0002 29.9056 23.0002H15.197Z" fill="#5D5D5D"/>
<path d="M15.7149 20.3412C15.6136 20.2068 15.4706 20.0941 15.2496 19.9527M15.7149 20.3412C15.8247 20.4869 15.9055 20.6533 15.9524 20.831C15.9994 21.0086 16.0117 21.194 15.9885 21.3765C15.9523 21.653 15.7922 21.9351 15.4706 22.5M15.7149 20.3412L16.6729 19.6186M15.7149 20.3412L16.6733 19.6191M15.2496 19.9527L3.01185 16.6235C2.96395 16.9917 3.06248 17.3641 3.28553 17.6588C3.38679 17.7932 3.52979 17.9059 3.75079 18.0473C4.07716 18.2552 4.28653 18.6094 4.28653 19C4.28653 19.3906 4.07716 19.7448 3.75148 19.952C3.52979 20.0941 3.38679 20.2068 3.28485 20.3412C3.17508 20.4869 3.09447 20.6534 3.04762 20.831C3.00078 21.0087 2.98862 21.194 3.01185 21.3765C3.04811 21.6523 3.20822 21.9351 3.52979 22.5L3.53363 22.5067C3.85265 23.0671 4.01234 23.3477 4.22905 23.5171C4.51916 23.7432 4.88589 23.8426 5.24852 23.7943C5.4141 23.7719 5.58173 23.7033 5.813 23.5787C5.97907 23.4864 6.16524 23.4385 6.35422 23.4395C6.54321 23.4405 6.72889 23.4903 6.89405 23.5843C7.22657 23.7803 7.42362 24.1408 7.43799 24.5314C7.44825 24.7974 7.47289 24.9794 7.5372 25.1355C7.67678 25.4785 7.94499 25.7515 8.28299 25.8936C8.53615 26 8.85772 26 9.50019 26C10.1427 26 10.4642 26 10.7174 25.8936C10.8844 25.8238 11.0363 25.7209 11.1643 25.5907C11.2923 25.4606 11.3939 25.3059 11.4632 25.1355C11.5275 24.9794 11.5521 24.7974 11.5624 24.5314C11.5761 24.1408 11.7738 23.7796 12.107 23.5843C12.2721 23.4904 12.4577 23.4407 12.6465 23.4397C12.8354 23.4387 13.0214 23.4865 13.1874 23.5787C13.4187 23.7033 13.5863 23.7719 13.7519 23.7943C14.1145 23.8433 14.4812 23.7432 14.7713 23.5171M15.2496 19.9527C14.9232 19.7448 14.7139 19.3906 14.7139 19M15.2496 19.9527L14.7139 19M15.4706 22.5C15.1497 23.0649 14.9889 23.3477 14.7713 23.5171M15.4706 22.5L16.514 23.0927M15.4706 22.5L16.5135 23.0937L16.4983 23.1203C16.3517 23.3784 16.2136 23.6216 16.083 23.819C15.9422 24.0318 15.7637 24.2652 15.509 24.4636M14.7713 23.5171L15.509 24.4636M14.7713 23.5171L15.509 24.4636M2.32794 18.382C1.91459 17.8353 1.73359 17.1474 1.82187 16.4687L1.82204 16.4675C1.86367 16.15 1.9716 15.8795 2.08301 15.6485C2.18639 15.4342 2.32531 15.1902 2.47312 14.9306L2.48639 14.9073C2.49163 14.8981 2.49685 14.8889 2.50207 14.8797C2.64866 14.6216 2.7868 14.3784 2.91739 14.181C3.05825 13.9681 3.23689 13.7345 3.49186 13.536L3.49303 13.5351L3.49303 13.5351C4.03554 13.1138 4.72357 12.925 5.4073 13.0163L5.4094 13.0165C5.73033 13.0599 6.00762 13.1736 6.24507 13.2932C6.26085 13.0258 6.30003 12.7184 6.4266 12.41C6.55451 12.0964 6.74234 11.8099 6.98065 11.5677C7.21949 11.3249 7.5044 11.1313 7.8197 10.9994L2.32794 18.382ZM2.32794 18.382C2.53491 18.6563 2.78717 18.849 3.01463 18.9999C2.78677 19.1513 2.53565 19.3433 2.32878 19.616L2.32877 19.616L2.3263 19.6193C2.12228 19.8902 1.97351 20.1981 1.88728 20.5251C1.80107 20.8521 1.77877 21.1927 1.82144 21.528L1.82209 21.5329C1.86376 21.8499 1.97166 22.1203 2.08291 22.351C2.18682 22.5665 2.32654 22.8119 2.47537 23.0734L2.48693 23.0937L2.50595 23.1271C2.65139 23.3826 2.78837 23.6233 2.91756 23.8186C3.05819 24.0312 3.23613 24.264 3.48996 24.4625L3.49138 24.4636C4.03485 24.8872 4.72432 25.0747 5.40696 24.9838L5.4094 24.9835C5.73032 24.9401 6.00762 24.8264 6.24506 24.7068C6.26085 24.9748 6.30006 25.2818 6.42669 25.5902C6.68495 26.2231 7.18283 26.7328 7.81792 26.9998L7.81803 26.9999C8.11706 27.1255 8.40852 27.1663 8.66282 27.1838C8.8972 27.2 9.17434 27.2 9.4666 27.2L9.50019 27.2L9.53379 27.2C9.82605 27.2 10.1032 27.2 10.3376 27.1838C10.5917 27.1663 10.8829 27.1256 11.1817 27.0002C11.4966 26.8683 11.7811 26.6748 12.0197 26.4323C12.258 26.1901 12.4459 25.9036 12.5738 25.5901C12.7003 25.2817 12.7395 24.9748 12.7553 24.7068C12.9928 24.8264 13.2701 24.9401 13.591 24.9835L13.5912 24.9835C14.2767 25.0761 14.9665 24.8862 15.5085 24.464L2.32794 18.382ZM15.509 24.4636L16.514 23.0927M16.514 23.0927L16.5273 23.0694C16.6751 22.8098 16.814 22.5658 16.9174 22.3515C17.0288 22.1205 17.1367 21.85 17.1784 21.5325L17.179 21.5274C17.2215 21.192 17.199 20.8513 17.1126 20.5243C17.0262 20.1975 16.8773 19.8898 16.6733 19.6191M16.514 23.0927L16.6733 19.6191M16.6733 19.6191L16.6729 19.6186M16.6729 19.6186C16.4658 19.344 16.2134 19.1511 15.9858 19.0001M16.6729 19.6186L15.9858 19.0001M15.9858 19.0001C16.2136 18.8487 16.4647 18.6567 16.6716 18.384L16.6741 18.3807C16.8781 18.1098 17.0269 17.8019 17.1131 17.4749C17.1993 17.1479 17.2216 16.8073 17.1789 16.472L17.1789 16.472L17.1783 16.4671C17.1366 16.1501 17.0287 15.8797 16.9175 15.649C16.8136 15.4335 16.6739 15.1881 16.525 14.9266L16.5135 14.9063L16.4945 14.8729C16.349 14.6174 16.212 14.3767 16.0828 14.1814C15.9422 13.9688 15.7643 13.736 15.5104 13.5375L15.5074 13.5351C14.9648 13.1138 14.2768 12.925 13.5931 13.0162L13.591 13.0165C13.2701 13.0599 12.9928 13.1736 12.7553 13.2932C12.7395 13.0252 12.7003 12.7183 12.5737 12.4099C12.4458 12.0963 12.258 11.8099 12.0197 11.5677C11.781 11.3251 11.4964 11.1316 11.1813 10.9997C10.8826 10.8744 10.5916 10.8337 10.3376 10.8162C10.1032 10.8 9.82605 10.8 9.53378 10.8L9.50019 10.8L9.46659 10.8C9.17435 10.8 8.89735 10.8 8.66304 10.8162C8.40878 10.8337 8.11839 10.8744 7.82016 10.9992L15.9858 19.0001ZM14.7139 19C14.7139 18.6094 14.9232 18.2552 15.2489 18.048L14.7139 19ZM10.3686 19C10.3686 19.5145 9.9629 19.9 9.50019 19.9C9.03792 19.9 8.63183 19.5142 8.63183 19C8.63183 18.4858 9.03792 18.1 9.50019 18.1C9.96247 18.1 10.3686 18.4858 10.3686 19Z" fill="#5D5D5D" stroke="#D9D9D9" stroke-width="2.4"/>
</svg>
