<svg width="28" height="25" viewBox="0 0 28 25" fill="none" xmlns="http://www.w3.org/2000/svg">
<path d="M16.8 0C18.2852 0 19.7096 0.585316 20.7598 1.62718C21.81 2.66905 22.4 4.08213 22.4 5.55556C22.4 7.02898 21.81 8.44206 20.7598 9.48393C19.7096 10.5258 18.2852 11.1111 16.8 11.1111C15.3148 11.1111 13.8904 10.5258 12.8402 9.48393C11.79 8.44206 11.2 7.02898 11.2 5.55556C11.2 4.08213 11.79 2.66905 12.8402 1.62718C13.8904 0.585316 15.3148 0 16.8 0ZM6.3 12.5C9.8 12.5 12.6 15.2778 12.6 18.75C12.6 22.2222 9.8 25 6.3 25C2.8 25 0 22.2222 0 18.75C0 15.2778 2.8 12.5 6.3 12.5ZM16.8 13.8889C22.988 13.8889 28 16.375 28 19.4444V22.2222H14.7C15.1621 21.122 15.4 19.9419 15.4 18.75C15.394 17.1032 14.9341 15.4894 14.07 14.0833C14.952 13.9722 15.848 13.8889 16.8 13.8889ZM6.3 14.5833C3.976 14.5833 2.1 16.4444 2.1 18.75C2.1 19.5278 2.31 20.25 2.688 20.8333L8.4 15.1667C7.812 14.7917 7.084 14.5833 6.3 14.5833ZM9.912 16.6667L4.2 22.3333C4.788 22.7083 5.516 22.9167 6.3 22.9167C8.624 22.9167 10.5 21.0556 10.5 18.75C10.5 17.9722 10.29 17.25 9.912 16.6667Z" fill="#FAFAFA"/>
</svg>
