<svg width="44" height="48" viewBox="0 0 44 48" fill="none" xmlns="http://www.w3.org/2000/svg">
<path d="M23.5587 0C26.2693 0 28.869 1.06466 30.7858 2.95976C32.7025 4.85487 33.7793 7.42518 33.7793 10.1053C33.7793 15.0316 30.2021 19.1495 25.475 20.0337L13.5168 8.21053C13.9647 5.90138 15.2121 3.81859 17.0447 2.32019C18.8773 0.821795 21.1806 0.00138926 23.5587 0ZM24.2741 25.2632L39.6051 40.4211L44 44.7663L40.7549 48L33.0894 40.4211H3.1173V35.3684C3.1173 30.72 9.50524 26.8042 18.1161 25.6168L-1.19209e-06 7.70526L3.24506 4.49684L24.2741 25.2632ZM44 35.3684V38.3495L31.5819 26.0716C38.8897 27.6126 44 31.2 44 35.3684Z" fill="#5D5D5D"/>
</svg>
