<svg width="51" height="48" viewBox="0 0 51 48" fill="none" xmlns="http://www.w3.org/2000/svg">
<path d="M40.8 10.1053C40.8 4.5221 36.2355 0 30.6 0C24.9645 0 20.4 4.5221 20.4 10.1053C20.4 15.6884 24.9645 20.2105 30.6 20.2105C36.2355 20.2105 40.8 15.6884 40.8 10.1053ZM25.5 35.8737C25.5 33.4484 24.225 31.1747 22.44 29.6589V29.0526C22.44 28.0674 22.2615 27.1326 21.981 26.2232C24.6075 25.6168 27.5145 25.2632 30.6 25.2632C41.871 25.2632 51 29.7853 51 35.3684V40.4211H25.5V35.8737ZM9.53674e-07 36.1263V44.9684C9.53674e-07 46.4842 1.53 48 3.315 48H17.34C18.87 48 20.4 46.4842 20.4 44.7158V35.8737C20.4 34.3579 18.87 32.8421 17.34 32.8421V29.0526C17.34 25.5158 13.77 22.7368 10.2 22.7368C6.63 22.7368 3.06 25.5158 3.06 29.0526V32.8421C1.53 32.8421 9.53674e-07 34.3579 9.53674e-07 36.1263ZM6.375 29.0526C6.375 27.0316 8.16 25.7684 10.2 25.7684C12.24 25.7684 14.025 27.0316 14.025 29.0526V32.8421H6.375V29.0526Z" fill="#5D5D5D"/>
</svg>
