<svg width="28" height="27" viewBox="0 0 28 27" fill="none" xmlns="http://www.w3.org/2000/svg">
<path d="M22.4 5.68421C22.4 2.54368 19.894 0 16.8 0C13.706 0 11.2 2.54368 11.2 5.68421C11.2 8.82474 13.706 11.3684 16.8 11.3684C19.894 11.3684 22.4 8.82474 22.4 5.68421ZM14 20.1789C14 18.8147 13.3 17.5358 12.32 16.6832V16.3421C12.32 15.7879 12.222 15.2621 12.068 14.7505C13.51 14.4095 15.106 14.2105 16.8 14.2105C22.988 14.2105 28 16.7542 28 19.8947V22.7368H14V20.1789ZM0 20.3211V25.2947C0 26.1474 0.84 27 1.82 27H9.52C10.36 27 11.2 26.1474 11.2 25.1526V20.1789C11.2 19.3263 10.36 18.4737 9.52 18.4737V16.3421C9.52 14.3526 7.56 12.7895 5.6 12.7895C3.64 12.7895 1.68 14.3526 1.68 16.3421V18.4737C0.840002 18.4737 0 19.3263 0 20.3211ZM3.5 16.3421C3.5 15.2053 4.48 14.4947 5.6 14.4947C6.72 14.4947 7.7 15.2053 7.7 16.3421V18.4737H3.5V16.3421Z" fill="#FAFAFA"/>
</svg>
