<svg width="33" height="34" viewBox="0 0 33 34" fill="none" xmlns="http://www.w3.org/2000/svg">
<path fill-rule="evenodd" clip-rule="evenodd" d="M27.625 0C28.9179 0 30.1579 0.513615 31.0721 1.42785C31.9864 2.34209 32.5 3.58207 32.5 4.875V21.125C32.5 22.4179 31.9864 23.6579 31.0721 24.5721C30.1579 25.4864 28.9179 26 27.625 26H8.66613L3.25 30.0625C1.911 31.0667 0 30.1112 0 28.4375V4.875C0 3.58207 0.513615 2.34209 1.42785 1.42785C2.34209 0.513615 3.58207 0 4.875 0H27.625ZM14.625 14.625H9.75C9.31902 14.625 8.9057 14.7962 8.60095 15.101C8.29621 15.4057 8.125 15.819 8.125 16.25C8.125 16.681 8.29621 17.0943 8.60095 17.399C8.9057 17.7038 9.31902 17.875 9.75 17.875H14.625C15.056 17.875 15.4693 17.7038 15.774 17.399C16.0788 17.0943 16.25 16.681 16.25 16.25C16.25 15.819 16.0788 15.4057 15.774 15.101C15.4693 14.7962 15.056 14.625 14.625 14.625ZM22.75 8.125H9.75C9.33582 8.12546 8.93745 8.28405 8.63628 8.56838C8.3351 8.8527 8.15387 9.2413 8.1296 9.65477C8.10532 10.0682 8.23985 10.4754 8.50568 10.793C8.77151 11.1106 9.14859 11.3147 9.55987 11.3636L9.75 11.375H22.75C23.1642 11.3745 23.5626 11.2159 23.8637 10.9316C24.1649 10.6473 24.3461 10.2587 24.3704 9.84523C24.3947 9.43177 24.2602 9.02463 23.9943 8.70702C23.7285 8.38941 23.3514 8.18529 22.9401 8.13638L22.75 8.125Z" fill="#FAFAFA"/>
</svg>
