<svg width="44" height="44" viewBox="0 0 44 44" fill="none" xmlns="http://www.w3.org/2000/svg">
<circle cx="22" cy="22" r="22" fill="#F75959"/>
<path d="M33.7303 32H10.2697C9.29483 32 8.68711 30.9396 9.16823 30.0836L20.9048 9.64168C21.0151 9.44677 21.1745 9.28475 21.3668 9.17205C21.5591 9.05936 21.7776 9 22 9C22.2224 9 22.4409 9.05936 22.6332 9.17205C22.8255 9.28475 22.9849 9.44677 23.0952 9.64168L34.8318 30.0836C35.3129 30.9396 34.7052 32 33.7303 32ZM20.7276 28.1671H23.2598V25.6119H20.7276V28.1671ZM21.9937 23.0567C22.69 23.0567 23.2598 22.4817 23.2598 21.7791V19.2238C23.2598 18.5211 22.69 17.9462 21.9937 17.9462C21.2973 17.9462 20.7276 18.5211 20.7276 19.2238V21.7791C20.7276 22.4817 21.2973 23.0567 21.9937 23.0567Z" fill="#FAFAFA"/>
</svg>
